<?xml version="1.0" encoding="UTF-8" standalone="no"?>
<svg
   width="500"
   height="500"
   viewBox="0 0 500 500"
   version="1.1"
   id="svg291"
   sodipodi:docname="444.svg"
   inkscape:export-filename="детская.svg"
   inkscape:export-xdpi="96"
   inkscape:export-ydpi="96"
   xmlns:inkscape="http://www.inkscape.org/namespaces/inkscape"
   xmlns:sodipodi="http://sodipodi.sourceforge.net/DTD/sodipodi-0.dtd"
   xmlns="http://www.w3.org/2000/svg"
   xmlns:svg="http://www.w3.org/2000/svg">
  <defs
     id="defs295" />
  <sodipodi:namedview
     id="namedview293"
     pagecolor="#ffffff"
     bordercolor="#000000"
     borderopacity="0.25"
     inkscape:showpageshadow="2"
     inkscape:pageopacity="0.0"
     inkscape:pagecheckerboard="0"
     inkscape:deskcolor="#d1d1d1"
     showgrid="false" />
  <g
     transform="translate(-190,-89)"
     id="g289">
    <g
       id="g406">
      <g
         id="g454">
        <rect
           width="500"
           height="500"
           fill="#a9cb00"
           id="rect277"
           x="0"
           y="0"
           style="display:inline"
           transform="translate(190,89)" />
        <text
           fill="#ffffff"
           font-size="51.4365px"
           font-family="PTSans-Narrow, 'PT Sans'"
           id="text287"
           x="425.86649"
           y="480.98682"
           transform="scale(0.93521013,1.0692784)"
           style="font-size:64px;stroke-width:0.93521"><tspan
             x="243.85867"
             y="533.35864"
             id="tspan285"
             style="font-style:normal;font-variant:normal;font-weight:normal;font-stretch:normal;font-size:64px;font-family:'PT Sans Narrow';-inkscape-font-specification:'PT Sans Narrow';stroke-width:0.93521">Мебель для детской</tspan></text>
        <g
           id="g446"
           transform="translate(7.5650414e-4,0.984562)"
           style="display:inline">
          <path
             d="m 615,149 a 24.938,24.938 0 0 0 -8.334,48.465 V 249 H 273.334 v -51.535 a 25,25 0 1 0 -16.667,0 v 293.2 a 8.334,8.334 0 0 0 16.667,0 v -8.334 h 333.333 v 8.334 a 8.334,8.334 0 1 0 16.667,0 v -293.2 A 24.939,24.939 0 0 0 615,149 Z m -91.666,116.666 h 33.334 v 150 h -33.334 z m -50,0 h 33.334 v 150 h -33.334 z m -50,0 h 33.334 v 150 h -33.334 z m -50,0 h 33.334 v 150 h -33.334 z m -50,0 h 33.334 v 150 h -33.334 z m -16.667,0 v 150 h -33.333 v -150 h 33.332 z M 265,182.334 A 8.334,8.334 0 1 1 273.334,174 8.344,8.344 0 0 1 265,182.334 Z M 606.666,465.666 H 273.334 v -33.333 h 333.333 v 33.334 z m 0,-50 h -33.333 v -150 h 33.334 z M 615,182.334 A 8.334,8.334 0 1 1 623.334,174 8.344,8.344 0 0 1 615,182.334 Z"
             fill="#ffffff"
             stroke="#0106a0"
             stroke-width="2"
             id="path279" />
          <path
             d="m 356.666,215.666 h 50 a 8.325,8.325 0 0 0 7.145,-12.622 l -23.612,-39.353 a 49.877,49.877 0 0 1 41.467,-47.182 V 142.2 a 25,25 0 1 0 16.667,0 v -25.691 a 49.969,49.969 0 0 1 41.666,49.158 h -8.333 A 8.329,8.329 0 0 0 473.332,174 v 33.334 a 8.329,8.329 0 0 0 8.334,8.333 H 515 a 8.329,8.329 0 0 0 8.334,-8.334 V 174 A 8.329,8.329 0 0 0 515,165.666 h -8.334 A 66.553,66.553 0 0 0 373.614,162.89 l -24.093,40.154 a 8.325,8.325 0 0 0 7.145,12.622 z M 506.666,199 H 490 v -16.666 h 16.666 z M 440,157.334 a 8.333,8.333 0 1 1 -8.334,8.332 8.344,8.344 0 0 1 8.334,-8.332 z M 381.666,181.862 391.953,199 H 371.38 Z"
             fill="#ffffff"
             stroke="#0106a0"
             stroke-width="2"
             id="path281" />
        </g>
      </g>
    </g>
  </g>
</svg>
