<?xml version="1.0" encoding="UTF-8" standalone="no"?>
<svg
   width="500"
   height="500"
   viewBox="0 0 500 500"
   version="1.1"
   id="svg291"
   sodipodi:docname="444.svg"
   inkscape:export-filename="Кухни.svg"
   inkscape:export-xdpi="96"
   inkscape:export-ydpi="96"
   xml:space="preserve"
   xmlns:inkscape="http://www.inkscape.org/namespaces/inkscape"
   xmlns:sodipodi="http://sodipodi.sourceforge.net/DTD/sodipodi-0.dtd"
   xmlns="http://www.w3.org/2000/svg"
   xmlns:svg="http://www.w3.org/2000/svg"><defs
     id="defs295" /><sodipodi:namedview
     id="namedview293"
     pagecolor="#ffffff"
     bordercolor="#000000"
     borderopacity="0.25"
     inkscape:showpageshadow="2"
     inkscape:pageopacity="0.0"
     inkscape:pagecheckerboard="0"
     inkscape:deskcolor="#d1d1d1"
     showgrid="false" /><g
     transform="translate(-190,-89)"
     id="g289"><g
       id="g406"><rect
         width="500"
         height="500"
         fill="#a9cb00"
         id="rect277"
         x="190"
         y="89"
         style="display:inline;fill:#005e4f;fill-opacity:1"
         inkscape:label="rect277" /><text
         fill="#ffffff"
         font-size="51.4365px"
         font-family="PTSans-Narrow, 'PT Sans'"
         id="text287"
         x="410.44226"
         y="485.66693"
         transform="matrix(0.93521013,0,0,1.0692784,-170.2147,46.000077)"
         style="font-size:64px;white-space:pre;inline-size:504.803;stroke-width:0.93521"
         xml:space="preserve"><tspan
           x="410.44226"
           y="485.66693"
           id="tspan3935"><tspan
             style="font-family:'PT Sans Narrow';-inkscape-font-specification:'PT Sans Narrow'"
             id="tspan3933">Компьютерные столы</tspan></tspan></text></g><g
       id="g3839"
       transform="matrix(0.83333333,0,0,0.83333333,226.66667,79.99951)"
       style="fill:#ffffff;fill-opacity:1;stroke:#2317ab;stroke-width:2.4;stroke-dasharray:none;stroke-opacity:1"><path
         d="m 488,208.00115 h -3.05591 l 2.21118,-4.42236 a 7.99983,7.99983 0 0 0 -1.498,-9.23438 l -7.51563,-7.51513 a 36.97058,36.97058 0 0 0 -52.28418,4.9e-4 l -7.51465,7.51464 a 7.99983,7.99983 0 0 0 -1.498,9.23438 l 2.21118,4.42236 H 400 v -24 a 8.00008,8.00008 0 0 0 -8,-8 h -16 v -72 a 8.00008,8.00008 0 0 0 -8,-8 H 240 a 8.00008,8.00008 0 0 0 -8,8 v 72 h -16 a 8.00008,8.00008 0 0 0 -8,8 v 24 h -40.80493 a 40.068,40.068 0 0 0 -39.19507,-32 h -16 v -10.165 a 15.97263,15.97263 0 0 0 -5.36792,-29.59942 L 92.35278,98.158 A 15.92552,15.92552 0 0 0 96,88.00115 c 0,-0.34338 -0.03,-0.6792 -0.05151,-1.01727 L 144.927,54.33117 a 15.8555,15.8555 0 0 0 3.40381,1.2287 l -2.7312,3.64148 a 8.00088,8.00088 0 0 0 1.96289,11.456 l 21.11621,14.07765 7.42969,44.58154 a 8,8 0 0 0 14.44531,3.27246 l 56,-80 A 8.00015,8.00015 0 0 0 240,40.00115 H 202.42188 L 180.4375,25.3449 a 7.998,7.998 0 0 0 -10.83789,1.85645 l -3.69092,4.92108 A 15.98924,15.98924 0 0 0 136,40.00115 c 0,0.34351 0.0303,0.67951 0.0515,1.0177 L 87.07324,73.6712 a 15.984,15.984 0 1 0 -9.70532,30.09436 l 14.2793,38.07873 A 15.96419,15.96419 0 0 0 96,165.83617 v 10.165 h -8 a 40.068,40.068 0 0 0 -39.19507,32 H 24 a 8.00008,8.00008 0 0 0 -8,8 v 40 a 8.00008,8.00008 0 0 0 8,8 h 16 v 200 a 8.00008,8.00008 0 0 0 8,8 h 8 v 8 a 8,8 0 1 0 16,0 v -8 h 24 v 8 a 8,8 0 1 0 16,0 v -8 h 64 v 8 a 8,8 0 1 0 16,0 v -8 h 16 a 8.00008,8.00008 0 0 0 8,-8 v -48 h 208 v 48 a 8.00008,8.00008 0 0 0 8,8 h 8 v 8 a 8,8 0 1 0 16,0 v -8 h 8 a 8.00008,8.00008 0 0 0 8,-8 v -200 h 16 a 8.00008,8.00008 0 0 0 8,-8 v -40 a 8.00008,8.00008 0 0 0 -8,-8.00002 z M 177.85938,42.85564 195.5625,54.6574 A 7.99828,7.99828 0 0 0 200,56.00115 h 24.63477 L 188.67285,107.37566 183.8916,78.68572 A 8.00266,8.00266 0 0 0 180.4375,73.3449 L 163.47363,62.03582 Z m 255.875,158.7251 3.43652,-3.437 a 20.97052,20.97052 0 0 1 29.65722,-4.9e-4 l 3.4375,3.4375 -3.21,6.42041 H 436.94434 Z M 248,112.00115 h 112 v 64 h -16 v 0.0278 a 46.12383,46.12383 0 0 0 -19.57812,4.817 30.04054,30.04054 0 0 1 -13.36622,3.15527 H 296.94434 A 30.04054,30.04054 0 0 1 283.57812,180.84592 46.12383,46.12383 0 0 0 264,176.02892 v -0.0278 h -16 z m -24,80 h 39.05566 a 30.04041,30.04041 0 0 1 13.36622,3.15528 46.12376,46.12376 0 0 0 20.52246,4.84472 h 14.11132 a 46.12376,46.12376 0 0 0 20.52246,-4.84472 30.04041,30.04041 0 0 1 13.36622,-3.15528 H 384 v 16 H 224 Z m -136,0 h 40 a 24.04166,24.04166 0 0 1 22.62891,16 H 65.37109 a 24.04166,24.04166 0 0 1 22.62891,-16 z m -16,72 v 192 H 56 v -192 z m 16,64 h 112 v 48 H 88 Z m 112,-16 H 88 v -48 h 112 z m -112,144 v -64 h 112 v 64 z m 128,-56 v -136 h 208 v 136 z m 240,56 h -16 v -192 h 16 z m 24,-208 H 32 v -24 h 448 z"
         id="path3822"
         style="fill:#ffffff;fill-opacity:1;stroke:#2317ab;stroke-width:2.4;stroke-dasharray:none;stroke-opacity:1" /><path
         d="m 120,344.001 h 48 v 16 h -48 z"
         id="path3824"
         style="fill:#ffffff;fill-opacity:1;stroke:#2317ab;stroke-width:2.4;stroke-dasharray:none;stroke-opacity:1" /><path
         d="m 120,408.001 h 48 v 16 h -48 z"
         id="path3826"
         style="fill:#ffffff;fill-opacity:1;stroke:#2317ab;stroke-width:2.4;stroke-dasharray:none;stroke-opacity:1" /><path
         d="m 120,280.001 h 48 v 16 h -48 z"
         id="path3828"
         style="fill:#ffffff;fill-opacity:1;stroke:#2317ab;stroke-width:2.4;stroke-dasharray:none;stroke-opacity:1" /></g></g></svg>
