<svg xmlns="http://www.w3.org/2000/svg" width="500" height="500" viewBox="0 0 500 500">
  <g id="kompyuternye-stoly" transform="translate(-190 -89)">
    <g id="g406">
      <rect id="rect277" width="500" height="500" transform="translate(190 89)" fill="#005e4f"/>
      <text id="text287" transform="translate(213.635 565.314)" fill="#fff" font-size="60" font-family="PTSans-Narrow, PT Sans"><tspan x="0" y="0">Компьютерные столы</tspan></text>
    </g>
    <g id="g3839" transform="translate(226.667 80)">
      <path id="path3822" d="M406.665,173.333h-2.547l1.843-3.685a6.666,6.666,0,0,0-1.248-7.7l-6.263-6.263a30.809,30.809,0,0,0-43.57,0l-6.262,6.262a6.667,6.667,0,0,0-1.248,7.7l1.843,3.685h-15.88v-20a6.667,6.667,0,0,0-6.667-6.667H313.332v-60A6.667,6.667,0,0,0,306.665,80H200a6.667,6.667,0,0,0-6.667,6.667v60H180a6.667,6.667,0,0,0-6.667,6.667v20h-34a33.39,33.39,0,0,0-32.662-26.667H93.333V138.2A13.31,13.31,0,0,0,88.86,113.53L76.96,81.8A13.271,13.271,0,0,0,80,73.334c0-.286-.025-.566-.043-.848l40.815-27.21a13.213,13.213,0,0,0,2.836,1.024l-2.276,3.035a6.667,6.667,0,0,0,1.636,9.547l17.6,11.731,6.191,37.151a6.667,6.667,0,0,0,12.038,2.727l46.666-66.666A6.667,6.667,0,0,0,200,33.334H168.684l-18.32-12.213a6.665,6.665,0,0,0-9.032,1.547l-3.076,4.1a13.324,13.324,0,0,0-24.924,6.566c0,.286.025.566.043.848L72.561,61.392a13.32,13.32,0,1,0-8.088,25.079l11.9,31.732A13.3,13.3,0,0,0,80,138.2v8.471H73.333a33.39,33.39,0,0,0-32.662,26.667H20A6.667,6.667,0,0,0,13.333,180v33.333A6.667,6.667,0,0,0,20,220H33.333V386.666A6.667,6.667,0,0,0,40,393.333h6.667V400A6.667,6.667,0,0,0,60,400v-6.667H80V400a6.667,6.667,0,0,0,13.333,0v-6.667h53.333V400A6.667,6.667,0,0,0,160,400v-6.667h13.333A6.667,6.667,0,0,0,180,386.666v-40H353.332v40A6.667,6.667,0,0,0,360,393.333h6.667V400A6.667,6.667,0,0,0,380,400v-6.667h6.667a6.667,6.667,0,0,0,6.667-6.667V220h13.333a6.667,6.667,0,0,0,6.667-6.667V180a6.667,6.667,0,0,0-6.667-6.667ZM148.215,35.713l14.753,9.835a6.665,6.665,0,0,0,3.7,1.12h20.529L157.227,89.48l-3.984-23.908a6.669,6.669,0,0,0-2.878-4.451L136.228,51.7Zm213.228,132.27,2.864-2.864a17.475,17.475,0,0,1,24.714,0l2.865,2.865-2.675,5.35H364.119ZM206.666,93.334H300v53.333H286.665v.023A38.437,38.437,0,0,0,270.35,150.7a25.034,25.034,0,0,1-11.138,2.629h-11.76a25.033,25.033,0,0,1-11.138-2.629A38.436,38.436,0,0,0,220,146.69v-.023H206.666Zm-20,66.666h32.546a25.034,25.034,0,0,1,11.138,2.629,38.436,38.436,0,0,0,17.1,4.037h11.759a38.436,38.436,0,0,0,17.1-4.037A25.034,25.034,0,0,1,287.453,160H320v13.333H186.666ZM73.333,160h33.333a20.035,20.035,0,0,1,18.857,13.333H54.476A20.035,20.035,0,0,1,73.333,160ZM60,220V380H46.666V220Zm13.333,53.333h93.333v40H73.333ZM166.666,260H73.333V220h93.333ZM73.333,380V326.666h93.333V380ZM180,333.333V220H353.332V333.333ZM380,380H366.665V220H380Zm20-173.333H26.667v-20H400Z" fill="#fff" stroke="#2317ab" stroke-width="2"/>
      <path id="path3824" d="M100,286.666h40V300H100Z" fill="#fff" stroke="#2317ab" stroke-width="2"/>
      <path id="path3826" d="M100,340h40v13.333H100Z" fill="#fff" stroke="#2317ab" stroke-width="2"/>
      <path id="path3828" d="M100,233.333h40v13.333H100Z" fill="#fff" stroke="#2317ab" stroke-width="2"/>
    </g>
  </g>
</svg>
