<?xml version="1.0" encoding="UTF-8" standalone="no"?>
<svg
   width="500"
   height="500"
   viewBox="0 0 500 500"
   version="1.1"
   id="svg291"
   sodipodi:docname="Кухни.svg"
   inkscape:export-filename="Кухни.png"
   inkscape:export-xdpi="96"
   inkscape:export-ydpi="96"
   xml:space="preserve"
   xmlns:inkscape="http://www.inkscape.org/namespaces/inkscape"
   xmlns:sodipodi="http://sodipodi.sourceforge.net/DTD/sodipodi-0.dtd"
   xmlns="http://www.w3.org/2000/svg"
   xmlns:svg="http://www.w3.org/2000/svg"><defs
     id="defs295" /><sodipodi:namedview
     id="namedview293"
     pagecolor="#ffffff"
     bordercolor="#000000"
     borderopacity="0.25"
     inkscape:showpageshadow="2"
     inkscape:pageopacity="0.0"
     inkscape:pagecheckerboard="0"
     inkscape:deskcolor="#d1d1d1"
     showgrid="false" /><g
     transform="translate(-190,-89)"
     id="g289"><g
       id="g406"><rect
         width="500"
         height="500"
         fill="#a9cb00"
         id="rect277"
         x="190"
         y="89"
         style="display:inline;fill:#cb7000;fill-opacity:1"
         inkscape:label="rect277" /><text
         fill="#ffffff"
         font-size="51.4365px"
         font-family="PTSans-Narrow, 'PT Sans'"
         id="text287"
         x="565.10913"
         y="475.99484"
         transform="scale(0.93521013,1.0692784)"
         style="font-size:64px;stroke-width:0.93521"><tspan
           x="383.10132"
           y="528.36664"
           id="tspan285"
           style="font-style:normal;font-variant:normal;font-weight:normal;font-stretch:normal;font-size:64px;font-family:'PT Sans Narrow';-inkscape-font-specification:'PT Sans Narrow';stroke-width:0.93521">Кухни</tspan></text></g><g
       id="g853"
       transform="matrix(0.77730645,0,0,0.77730493,241.00994,100.00994)"
       style="fill:#ffffff;fill-opacity:1;stroke:#2317ab;stroke-width:2.57299;stroke-dasharray:none;stroke-opacity:1"><g
         id="SVGCleanerId_0"
         style="fill:#ffffff;fill-opacity:1;stroke:#2317ab;stroke-width:2.57299;stroke-dasharray:none;stroke-opacity:1">
	<g
   id="g500"
   style="fill:#ffffff;fill-opacity:1;stroke:#2317ab;stroke-width:2.57299;stroke-dasharray:none;stroke-opacity:1">
		<path
   d="M 366.933,307.2 H 145.067 c -4.71,0 -8.533,3.814 -8.533,8.533 v 187.733 c 0,4.719 3.823,8.533 8.533,8.533 h 221.867 c 4.719,0 8.533,-3.814 8.533,-8.533 V 315.733 c 0,-4.719 -3.815,-8.533 -8.534,-8.533 z M 358.4,494.933 H 153.6 V 324.267 h 204.8 z"
   id="path498"
   style="fill:#ffffff;fill-opacity:1;stroke:#2317ab;stroke-width:2.57299;stroke-dasharray:none;stroke-opacity:1" />
	</g>
</g><g
         id="g507"
         style="fill:#ffffff;fill-opacity:1;stroke:#2317ab;stroke-width:2.57299;stroke-dasharray:none;stroke-opacity:1">
	<g
   id="g505"
   style="fill:#ffffff;fill-opacity:1;stroke:#2317ab;stroke-width:2.57299;stroke-dasharray:none;stroke-opacity:1">
		<path
   d="M 366.933,307.2 H 145.067 c -4.71,0 -8.533,3.814 -8.533,8.533 v 187.733 c 0,4.719 3.823,8.533 8.533,8.533 h 221.867 c 4.719,0 8.533,-3.814 8.533,-8.533 V 315.733 c 0,-4.719 -3.815,-8.533 -8.534,-8.533 z M 358.4,494.933 H 153.6 V 324.267 h 204.8 z"
   id="path503"
   style="fill:#ffffff;fill-opacity:1;stroke:#2317ab;stroke-width:2.57299;stroke-dasharray:none;stroke-opacity:1" />
	</g>
</g><g
         id="g513"
         style="fill:#ffffff;fill-opacity:1;stroke:#2317ab;stroke-width:2.57299;stroke-dasharray:none;stroke-opacity:1">
	<g
   id="g511"
   style="fill:#ffffff;fill-opacity:1;stroke:#2317ab;stroke-width:2.57299;stroke-dasharray:none;stroke-opacity:1">
		<path
   id="path509"
   style="fill:#ffffff;fill-opacity:1;stroke:#2317ab;stroke-width:2.57299;stroke-dasharray:none;stroke-opacity:1"
   d="m 8.5328484,307.20105 c -4.7099953,0 -8.53307273237,3.81409 -8.53307273237,8.53309 v 187.73299 c 0,4.71999 3.82307743237,8.53309 8.53307273237,8.53309 H 145.06704 c 4.70999,0 8.53307,-3.8141 8.53307,-8.53309 V 315.73414 c 0.001,-4.719 -3.82308,-8.53309 -8.53307,-8.53309 z m 8.5330726,17.06618 H 136.53397 v 51.19853 H 17.065921 Z m 0,68.26722 H 136.53397 V 494.93404 H 17.065921 Z" />
	</g>
</g><g
         id="g519"
         style="fill:#ffffff;fill-opacity:1;stroke:#2317ab;stroke-width:2.57299;stroke-dasharray:none;stroke-opacity:1">
	<g
   id="g517"
   style="fill:#ffffff;fill-opacity:1;stroke:#2317ab;stroke-width:2.57299;stroke-dasharray:none;stroke-opacity:1">
		<path
   id="path515"
   style="fill:#ffffff;fill-opacity:1;stroke:#2317ab;stroke-width:2.57299;stroke-dasharray:none;stroke-opacity:1"
   d="m 366.93196,307.20105 c -4.719,0 -8.53308,3.81409 -8.53308,8.53309 v 187.73299 c 0,4.71899 3.81408,8.53309 8.53308,8.53309 h 136.53419 c 4.71899,0 8.53307,-3.8141 8.53307,-8.53309 V 315.73414 c 0.001,-4.719 -3.81408,-8.53309 -8.53307,-8.53309 z m 8.53558,17.06618 h 119.46553 v 51.19853 H 375.46754 Z m 0,68.26722 h 51.19844 v 102.39959 h -51.19844 z m 68.2671,0 h 51.19843 v 102.39959 h -51.19843 z" />
	</g>
</g><g
         id="g525"
         style="fill:#ffffff;fill-opacity:1;stroke:#2317ab;stroke-width:2.57299;stroke-dasharray:none;stroke-opacity:1">
	<g
   id="g523"
   style="fill:#ffffff;fill-opacity:1;stroke:#2317ab;stroke-width:2.57299;stroke-dasharray:none;stroke-opacity:1">
		<path
   d="M 332.8,375.467 H 179.2 c -4.71,0 -8.533,3.814 -8.533,8.533 v 85.333 c 0,4.719 3.823,8.533 8.533,8.533 h 153.6 c 4.719,0 8.533,-3.814 8.533,-8.533 V 384 c 0,-4.719 -3.814,-8.533 -8.533,-8.533 z M 324.267,460.8 H 187.733 V 392.533 H 324.266 V 460.8 Z"
   id="path521"
   style="fill:#ffffff;fill-opacity:1;stroke:#2317ab;stroke-width:2.57299;stroke-dasharray:none;stroke-opacity:1" />
	</g>
</g><g
         id="g531"
         style="fill:#ffffff;fill-opacity:1;stroke:#2317ab;stroke-width:2.57299;stroke-dasharray:none;stroke-opacity:1">
	<g
   id="g529"
   style="fill:#ffffff;fill-opacity:1;stroke:#2317ab;stroke-width:2.57299;stroke-dasharray:none;stroke-opacity:1">
		<rect
   x="264.53299"
   y="341.33301"
   width="17.066999"
   height="17.066999"
   id="rect527"
   style="fill:#ffffff;fill-opacity:1;stroke:#2317ab;stroke-width:2.57299;stroke-dasharray:none;stroke-opacity:1" />
	</g>
</g><g
         id="g537"
         style="fill:#ffffff;fill-opacity:1;stroke:#2317ab;stroke-width:2.57299;stroke-dasharray:none;stroke-opacity:1">
	<g
   id="g535"
   style="fill:#ffffff;fill-opacity:1;stroke:#2317ab;stroke-width:2.57299;stroke-dasharray:none;stroke-opacity:1">
		<rect
   x="230.39999"
   y="341.33301"
   width="17.066999"
   height="17.066999"
   id="rect533"
   style="fill:#ffffff;fill-opacity:1;stroke:#2317ab;stroke-width:2.57299;stroke-dasharray:none;stroke-opacity:1" />
	</g>
</g><g
         id="g543"
         style="fill:#ffffff;fill-opacity:1;stroke:#2317ab;stroke-width:2.57299;stroke-dasharray:none;stroke-opacity:1">
	<g
   id="g541"
   style="fill:#ffffff;fill-opacity:1;stroke:#2317ab;stroke-width:2.57299;stroke-dasharray:none;stroke-opacity:1">
		<rect
   x="196.267"
   y="341.33301"
   width="17.066999"
   height="17.066999"
   id="rect539"
   style="fill:#ffffff;fill-opacity:1;stroke:#2317ab;stroke-width:2.57299;stroke-dasharray:none;stroke-opacity:1" />
	</g>
</g><g
         id="g549"
         style="fill:#ffffff;fill-opacity:1;stroke:#2317ab;stroke-width:2.57299;stroke-dasharray:none;stroke-opacity:1">
	<g
   id="g547"
   style="fill:#ffffff;fill-opacity:1;stroke:#2317ab;stroke-width:2.57299;stroke-dasharray:none;stroke-opacity:1">
		<rect
   x="298.66699"
   y="341.33301"
   width="17.066999"
   height="17.066999"
   id="rect545"
   style="fill:#ffffff;fill-opacity:1;stroke:#2317ab;stroke-width:2.57299;stroke-dasharray:none;stroke-opacity:1" />
	</g>
</g><g
         id="g555"
         style="fill:#ffffff;fill-opacity:1;stroke:#2317ab;stroke-width:2.57299;stroke-dasharray:none;stroke-opacity:1">
	<g
   id="g553"
   style="fill:#ffffff;fill-opacity:1;stroke:#2317ab;stroke-width:2.57299;stroke-dasharray:none;stroke-opacity:1">
		
	</g>
</g><g
         id="g561"
         style="fill:#ffffff;fill-opacity:1;stroke:#2317ab;stroke-width:2.57299;stroke-dasharray:none;stroke-opacity:1">
	<g
   id="g559"
   style="fill:#ffffff;fill-opacity:1;stroke:#2317ab;stroke-width:2.57299;stroke-dasharray:none;stroke-opacity:1">
		<rect
   x="59.733002"
   y="341.33301"
   width="34.132999"
   height="17.066999"
   id="rect557"
   style="fill:#ffffff;fill-opacity:1;stroke:#2317ab;stroke-width:2.57299;stroke-dasharray:none;stroke-opacity:1" />
	</g>
</g><g
         id="g567"
         style="fill:#ffffff;fill-opacity:1;stroke:#2317ab;stroke-width:2.57299;stroke-dasharray:none;stroke-opacity:1">
	<g
   id="g565"
   style="fill:#ffffff;fill-opacity:1;stroke:#2317ab;stroke-width:2.57299;stroke-dasharray:none;stroke-opacity:1">
		<rect
   x="59.733002"
   y="409.60001"
   width="34.132999"
   height="17.066999"
   id="rect563"
   style="fill:#ffffff;fill-opacity:1;stroke:#2317ab;stroke-width:2.57299;stroke-dasharray:none;stroke-opacity:1" />
	</g>
</g><g
         id="g573"
         style="display:inline;fill:#ffffff;fill-opacity:1;stroke:#2317ab;stroke-width:2.57299;stroke-dasharray:none;stroke-opacity:1">
	<g
   id="g571"
   style="fill:#ffffff;fill-opacity:1;stroke:#2317ab;stroke-width:2.57299;stroke-dasharray:none;stroke-opacity:1">
		
	</g>
</g><g
         id="g579"
         style="display:inline;fill:#ffffff;fill-opacity:1;stroke:#2317ab;stroke-width:2.57299;stroke-dasharray:none;stroke-opacity:1">
	<g
   id="g577"
   style="fill:#ffffff;fill-opacity:1;stroke:#2317ab;stroke-width:2.57299;stroke-dasharray:none;stroke-opacity:1">
		
	</g>
</g><g
         id="g585"
         style="fill:#ffffff;fill-opacity:1;stroke:#2317ab;stroke-width:2.57299;stroke-dasharray:none;stroke-opacity:1">
	<g
   id="g583"
   style="fill:#ffffff;fill-opacity:1;stroke:#2317ab;stroke-width:2.57299;stroke-dasharray:none;stroke-opacity:1">
		<rect
   x="418.133"
   y="341.33301"
   width="34.132999"
   height="17.066999"
   id="rect581"
   style="fill:#ffffff;fill-opacity:1;stroke:#2317ab;stroke-width:2.57299;stroke-dasharray:none;stroke-opacity:1" />
	</g>
</g><g
         id="g591"
         style="fill:#ffffff;fill-opacity:1;stroke:#2317ab;stroke-width:2.57299;stroke-dasharray:none;stroke-opacity:1">
	<g
   id="g589"
   style="fill:#ffffff;fill-opacity:1;stroke:#2317ab;stroke-width:2.57299;stroke-dasharray:none;stroke-opacity:1">
		<rect
   x="392.53299"
   y="426.66699"
   width="17.066999"
   height="25.6"
   id="rect587"
   style="fill:#ffffff;fill-opacity:1;stroke:#2317ab;stroke-width:2.57299;stroke-dasharray:none;stroke-opacity:1" />
	</g>
</g><g
         id="g597"
         style="fill:#ffffff;fill-opacity:1;stroke:#2317ab;stroke-width:2.57299;stroke-dasharray:none;stroke-opacity:1">
	<g
   id="g595"
   style="fill:#ffffff;fill-opacity:1;stroke:#2317ab;stroke-width:2.57299;stroke-dasharray:none;stroke-opacity:1">
		<rect
   x="460.79999"
   y="426.66699"
   width="17.066999"
   height="25.6"
   id="rect593"
   style="fill:#ffffff;fill-opacity:1;stroke:#2317ab;stroke-width:2.57299;stroke-dasharray:none;stroke-opacity:1" />
	</g>
</g><g
         id="g603"
         style="fill:#ffffff;fill-opacity:1;stroke:#2317ab;stroke-width:2.57299;stroke-dasharray:none;stroke-opacity:1">
	<g
   id="g601"
   style="fill:#ffffff;fill-opacity:1;stroke:#2317ab;stroke-width:2.57299;stroke-dasharray:none;stroke-opacity:1">
		<path
   d="M 364.433,139.034 332.8,107.401 V 8.533 C 332.8,3.823 328.986,0 324.267,0 H 187.733 C 183.023,0 179.2,3.823 179.2,8.533 V 107.4 l -31.633,31.633 c -2.441,2.44 -3.174,6.11 -1.852,9.301 1.323,3.183 4.437,5.265 7.885,5.265 h 204.8 c 3.447,0 6.571,-2.082 7.885,-5.265 1.322,-3.191 0.589,-6.86 -1.852,-9.3 z m -190.234,-2.501 19.567,-19.567 c 1.604,-1.596 2.5,-3.772 2.5,-6.033 V 17.067 h 119.467 v 93.867 c 0,2.261 0.896,4.437 2.5,6.033 L 337.8,136.534 H 174.199 Z"
   id="path599"
   style="fill:#ffffff;fill-opacity:1;stroke:#2317ab;stroke-width:2.57299;stroke-dasharray:none;stroke-opacity:1" />
	</g>
</g><g
         id="g609"
         style="fill:#ffffff;fill-opacity:1;stroke:#2317ab;stroke-width:2.57299;stroke-dasharray:none;stroke-opacity:1">
	<g
   id="g607"
   style="fill:#ffffff;fill-opacity:1;stroke:#2317ab;stroke-width:2.57299;stroke-dasharray:none;stroke-opacity:1">
		<path
   d="m 460.8,187.733 c -18.825,0 -34.133,15.309 -34.133,34.133 v 8.533 h 17.067 v -8.533 c 0,-9.412 7.654,-17.067 17.067,-17.067 9.412,0 17.067,7.654 17.067,17.067 v 93.867 h 17.067 v -93.867 c -0.002,-18.824 -15.31,-34.133 -34.135,-34.133 z"
   id="path605"
   style="fill:#ffffff;fill-opacity:1;stroke:#2317ab;stroke-width:2.57299;stroke-dasharray:none;stroke-opacity:1" />
	</g>
</g><g
         id="g615"
         style="fill:#ffffff;fill-opacity:1;stroke:#2317ab;stroke-width:2.57299;stroke-dasharray:none;stroke-opacity:1">
	<g
   id="g613"
   style="fill:#ffffff;fill-opacity:1;stroke:#2317ab;stroke-width:2.57299;stroke-dasharray:none;stroke-opacity:1">
		<rect
   x="460.79999"
   y="273.06699"
   width="25.6"
   height="17.066999"
   id="rect611"
   style="fill:#ffffff;fill-opacity:1;stroke:#2317ab;stroke-width:2.57299;stroke-dasharray:none;stroke-opacity:1" />
	</g>
</g><g
         id="g621"
         style="fill:#ffffff;fill-opacity:1;stroke:#2317ab;stroke-width:2.57299;stroke-dasharray:none;stroke-opacity:1">
	<g
   id="g619"
   style="fill:#ffffff;fill-opacity:1;stroke:#2317ab;stroke-width:2.57299;stroke-dasharray:none;stroke-opacity:1">
		<path
   id="path617"
   style="fill:#ffffff;fill-opacity:1;stroke:#2317ab;stroke-width:2.57299;stroke-dasharray:none;stroke-opacity:1"
   d="m 162.13318,256 c -4.70999,0 -8.53307,3.81409 -8.53307,8.53309 v 8.53309 h -17.06614 v 17.06869 h 17.06614 v 25.59927 c 0,4.71899 3.82308,8.53309 8.53307,8.53309 h 85.33324 c 4.71,0 8.53308,-3.8141 8.53308,-8.53309 v -25.59927 h 17.06865 V 273.06618 H 255.9995 v -8.53309 c 0,-4.719 -3.82308,-8.53309 -8.53308,-8.53309 z m 8.53308,17.06618 h 68.26709 v 34.13487 h -68.26709 z" />
	</g>
</g><g
         id="g627"
         style="fill:#ffffff;fill-opacity:1;stroke:#2317ab;stroke-width:2.57299;stroke-dasharray:none;stroke-opacity:1">
	<g
   id="g625"
   style="fill:#ffffff;fill-opacity:1;stroke:#2317ab;stroke-width:2.57299;stroke-dasharray:none;stroke-opacity:1">
		
	</g>
</g><g
         id="g633"
         style="fill:#ffffff;fill-opacity:1;stroke:#2317ab;stroke-width:2.57299;stroke-dasharray:none;stroke-opacity:1">
	<g
   id="g631"
   style="fill:#ffffff;fill-opacity:1;stroke:#2317ab;stroke-width:2.57299;stroke-dasharray:none;stroke-opacity:1">
		
	</g>
</g><g
         id="g639"
         style="fill:#ffffff;fill-opacity:1;stroke:#2317ab;stroke-width:2.57299;stroke-dasharray:none;stroke-opacity:1">
	<g
   id="g637"
   style="fill:#ffffff;fill-opacity:1;stroke:#2317ab;stroke-width:2.57299;stroke-dasharray:none;stroke-opacity:1">
		<path
   d="M 145.067,0 H 8.533 C 3.823,0 0,3.823 0,8.533 v 102.4 c 0,4.71 3.823,8.533 8.533,8.533 h 136.533 c 4.71,0 8.533,-3.823 8.533,-8.533 V 8.533 C 153.6,3.823 149.777,0 145.067,0 Z m -8.534,102.4 H 17.067 V 17.067 H 136.534 V 102.4 Z"
   id="path635"
   style="fill:#ffffff;fill-opacity:1;stroke:#2317ab;stroke-width:2.57299;stroke-dasharray:none;stroke-opacity:1" />
	</g>
</g><g
         id="g645"
         style="fill:#ffffff;fill-opacity:1;stroke:#2317ab;stroke-width:2.57299;stroke-dasharray:none;stroke-opacity:1">
	<g
   id="g643"
   style="fill:#ffffff;fill-opacity:1;stroke:#2317ab;stroke-width:2.57299;stroke-dasharray:none;stroke-opacity:1">
		<rect
   x="102.4"
   y="51.200001"
   width="17.066999"
   height="34.132999"
   id="rect641"
   style="fill:#ffffff;fill-opacity:1;stroke:#2317ab;stroke-width:2.57299;stroke-dasharray:none;stroke-opacity:1" />
	</g>
</g><g
         id="g651"
         style="fill:#ffffff;fill-opacity:1;stroke:#2317ab;stroke-width:2.57299;stroke-dasharray:none;stroke-opacity:1">
	<g
   id="g649"
   style="fill:#ffffff;fill-opacity:1;stroke:#2317ab;stroke-width:2.57299;stroke-dasharray:none;stroke-opacity:1">
		<path
   d="M 503.467,0 H 366.933 C 362.214,0 358.4,3.823 358.4,8.533 v 102.4 c 0,4.71 3.814,8.533 8.533,8.533 h 136.533 c 4.719,0 8.533,-3.823 8.533,-8.533 V 8.533 C 512,3.823 508.186,0 503.467,0 Z m -8.534,102.4 H 375.467 V 17.067 H 494.934 V 102.4 Z"
   id="path647"
   style="fill:#ffffff;fill-opacity:1;stroke:#2317ab;stroke-width:2.57299;stroke-dasharray:none;stroke-opacity:1" />
	</g>
</g><g
         id="g657"
         style="fill:#ffffff;fill-opacity:1;stroke:#2317ab;stroke-width:2.57299;stroke-dasharray:none;stroke-opacity:1">
	<g
   id="g655"
   style="fill:#ffffff;fill-opacity:1;stroke:#2317ab;stroke-width:2.57299;stroke-dasharray:none;stroke-opacity:1">
		<rect
   x="392.53299"
   y="51.200001"
   width="17.066999"
   height="34.132999"
   id="rect653"
   style="fill:#ffffff;fill-opacity:1;stroke:#2317ab;stroke-width:2.57299;stroke-dasharray:none;stroke-opacity:1" />
	</g>
</g><g
         id="g663"
         style="fill:#ffffff;fill-opacity:1;stroke:#2317ab;stroke-width:2.57299;stroke-dasharray:none;stroke-opacity:1">
	<g
   id="g661"
   style="fill:#ffffff;fill-opacity:1;stroke:#2317ab;stroke-width:2.57299;stroke-dasharray:none;stroke-opacity:1">
		<rect
   x="0"
   y="170.66701"
   width="153.60001"
   height="17.066999"
   id="rect659"
   style="fill:#ffffff;fill-opacity:1;stroke:#2317ab;stroke-width:2.57299;stroke-dasharray:none;stroke-opacity:1" />
	</g>
</g><g
         id="g669"
         style="fill:#ffffff;fill-opacity:1;stroke:#2317ab;stroke-width:2.57299;stroke-dasharray:none;stroke-opacity:1">
	<g
   id="g667"
   style="fill:#ffffff;fill-opacity:1;stroke:#2317ab;stroke-width:2.57299;stroke-dasharray:none;stroke-opacity:1">
		<path
   id="rect665"
   style="fill:#ffffff;fill-opacity:1;stroke:#2317ab;stroke-width:2.57299;stroke-dasharray:none;stroke-opacity:1"
   d="m 17.065921,153.60041 v 69.73464 c -9.9312074,3.52327 -17.06614533237,13.00922 -17.06614533237,24.13186 0,14.11398 11.48523233237,25.59927 25.59921833237,25.59927 14.113986,0 25.601731,-11.48529 25.601731,-25.59927 0,-11.12246 -7.135192,-20.60845 -17.066146,-24.13186 v -69.73464 z m 8.533073,85.33341 c 4.701995,0 8.533073,3.83109 8.533073,8.53309 0,4.70199 -3.831078,8.53309 -8.533073,8.53309 -4.701995,0 -8.533073,-3.8311 -8.533073,-8.53309 0,-4.702 3.831078,-8.53309 8.533073,-8.53309 z" />
	</g>
</g><g
         id="g675"
         style="fill:#ffffff;fill-opacity:1;stroke:#2317ab;stroke-width:2.57299;stroke-dasharray:none;stroke-opacity:1">
	<g
   id="g673"
   style="fill:#ffffff;fill-opacity:1;stroke:#2317ab;stroke-width:2.57299;stroke-dasharray:none;stroke-opacity:1">
		
	</g>
</g><g
         id="g681"
         style="fill:#ffffff;fill-opacity:1;stroke:#2317ab;stroke-width:2.57299;stroke-dasharray:none;stroke-opacity:1">
	<g
   id="g679"
   style="fill:#ffffff;fill-opacity:1;stroke:#2317ab;stroke-width:2.57299;stroke-dasharray:none;stroke-opacity:1">
		<path
   id="rect677"
   style="fill:#ffffff;fill-opacity:1;stroke:#2317ab;stroke-width:2.57299;stroke-dasharray:none;stroke-opacity:1"
   d="m 51.200725,153.60041 v 69.73464 c -9.931208,3.52327 -17.068658,13.00922 -17.068658,24.13186 0,14.11398 11.487745,25.59927 25.601731,25.59927 14.113986,0 25.599218,-11.48529 25.599218,-25.59927 0,-11.12264 -7.134938,-20.60859 -17.066146,-24.13186 v -69.73464 z m 8.533073,85.33341 c 4.701995,0 8.533072,3.83109 8.533072,8.53309 0.001,4.70199 -3.831077,8.53309 -8.533072,8.53309 -4.701996,0 -8.533073,-3.8311 -8.533073,-8.53309 0,-4.702 3.831077,-8.53309 8.533073,-8.53309 z" />
	</g>
</g><g
         id="g687"
         style="fill:#ffffff;fill-opacity:1;stroke:#2317ab;stroke-width:2.57299;stroke-dasharray:none;stroke-opacity:1">
	<g
   id="g685"
   style="fill:#ffffff;fill-opacity:1;stroke:#2317ab;stroke-width:2.57299;stroke-dasharray:none;stroke-opacity:1">
		
	</g>
</g><g
         id="g693"
         style="fill:#ffffff;fill-opacity:1;stroke:#2317ab;stroke-width:2.57299;stroke-dasharray:none;stroke-opacity:1">
	<g
   id="g691"
   style="fill:#ffffff;fill-opacity:1;stroke:#2317ab;stroke-width:2.57299;stroke-dasharray:none;stroke-opacity:1">
		<path
   id="rect689"
   style="fill:#ffffff;fill-opacity:1;stroke:#2317ab;stroke-width:2.57299;stroke-dasharray:none;stroke-opacity:1"
   d="m 85.333016,153.60041 v 69.73464 c -9.931208,3.52327 -17.066146,13.00922 -17.066146,24.13186 0,14.11398 11.485233,25.59927 25.599219,25.59927 14.113981,0 25.601731,-11.48529 25.601731,-25.59927 0,-11.1233 -7.13654,-20.60908 -17.06866,-24.13186 v -69.73464 z m 8.533073,85.33341 c 4.701995,0 8.533071,3.83109 8.533071,8.53309 0,4.70199 -3.831076,8.53309 -8.533071,8.53309 -4.701996,0 -8.533073,-3.8311 -8.533073,-8.53309 0,-4.702 3.831077,-8.53309 8.533073,-8.53309 z" />
	</g>
</g><g
         id="g699"
         style="fill:#ffffff;fill-opacity:1;stroke:#2317ab;stroke-width:2.57299;stroke-dasharray:none;stroke-opacity:1">
	<g
   id="g697"
   style="fill:#ffffff;fill-opacity:1;stroke:#2317ab;stroke-width:2.57299;stroke-dasharray:none;stroke-opacity:1">
		
	</g>
</g><g
         id="g701"
         style="fill:#ffffff;fill-opacity:1;stroke:#2317ab;stroke-width:2.57299;stroke-dasharray:none;stroke-opacity:1">
</g><g
         id="g703"
         style="fill:#ffffff;fill-opacity:1;stroke:#2317ab;stroke-width:2.57299;stroke-dasharray:none;stroke-opacity:1">
</g><g
         id="g705"
         style="fill:#ffffff;fill-opacity:1;stroke:#2317ab;stroke-width:2.57299;stroke-dasharray:none;stroke-opacity:1">
</g><g
         id="g707"
         style="fill:#ffffff;fill-opacity:1;stroke:#2317ab;stroke-width:2.57299;stroke-dasharray:none;stroke-opacity:1">
</g><g
         id="g709"
         style="fill:#ffffff;fill-opacity:1;stroke:#2317ab;stroke-width:2.57299;stroke-dasharray:none;stroke-opacity:1">
</g><g
         id="g711"
         style="fill:#ffffff;fill-opacity:1;stroke:#2317ab;stroke-width:2.57299;stroke-dasharray:none;stroke-opacity:1">
</g><g
         id="g713"
         style="fill:#ffffff;fill-opacity:1;stroke:#2317ab;stroke-width:2.57299;stroke-dasharray:none;stroke-opacity:1">
</g><g
         id="g715"
         style="fill:#ffffff;fill-opacity:1;stroke:#2317ab;stroke-width:2.57299;stroke-dasharray:none;stroke-opacity:1">
</g><g
         id="g717"
         style="fill:#ffffff;fill-opacity:1;stroke:#2317ab;stroke-width:2.57299;stroke-dasharray:none;stroke-opacity:1">
</g><g
         id="g719"
         style="fill:#ffffff;fill-opacity:1;stroke:#2317ab;stroke-width:2.57299;stroke-dasharray:none;stroke-opacity:1">
</g><g
         id="g721"
         style="fill:#ffffff;fill-opacity:1;stroke:#2317ab;stroke-width:2.57299;stroke-dasharray:none;stroke-opacity:1">
</g><g
         id="g723"
         style="fill:#ffffff;fill-opacity:1;stroke:#2317ab;stroke-width:2.57299;stroke-dasharray:none;stroke-opacity:1">
</g><g
         id="g725"
         style="fill:#ffffff;fill-opacity:1;stroke:#2317ab;stroke-width:2.57299;stroke-dasharray:none;stroke-opacity:1">
</g><g
         id="g727"
         style="fill:#ffffff;fill-opacity:1;stroke:#2317ab;stroke-width:2.57299;stroke-dasharray:none;stroke-opacity:1">
</g><g
         id="g729"
         style="fill:#ffffff;fill-opacity:1;stroke:#2317ab;stroke-width:2.57299;stroke-dasharray:none;stroke-opacity:1">
</g></g></g></svg>
