<?xml version="1.0" encoding="UTF-8" standalone="no"?>
<svg
   width="500"
   height="500"
   viewBox="0 0 500 500"
   version="1.1"
   id="svg291"
   sodipodi:docname="444.svg"
   inkscape:export-filename="Стенки в гостиную.svg"
   inkscape:export-xdpi="96"
   inkscape:export-ydpi="96"
   xml:space="preserve"
   xmlns:inkscape="http://www.inkscape.org/namespaces/inkscape"
   xmlns:sodipodi="http://sodipodi.sourceforge.net/DTD/sodipodi-0.dtd"
   xmlns="http://www.w3.org/2000/svg"
   xmlns:svg="http://www.w3.org/2000/svg"><defs
     id="defs295" /><sodipodi:namedview
     id="namedview293"
     pagecolor="#ffffff"
     bordercolor="#000000"
     borderopacity="0.25"
     inkscape:showpageshadow="2"
     inkscape:pageopacity="0.0"
     inkscape:pagecheckerboard="0"
     inkscape:deskcolor="#d1d1d1"
     showgrid="false" /><g
     transform="translate(-190,-89)"
     id="g289"><g
       id="g406"><rect
         width="500"
         height="500"
         fill="#a9cb00"
         id="rect277"
         x="190"
         y="89"
         style="display:inline;fill:#9b832a;fill-opacity:1"
         inkscape:label="rect277" /><text
         fill="#ffffff"
         font-size="51.4365px"
         font-family="PTSans-Narrow, 'PT Sans'"
         id="text287"
         x="410.44226"
         y="485.66693"
         transform="matrix(0.93521013,0,0,1.0692784,-158.09427,50.995746)"
         style="font-size:64px;white-space:pre;inline-size:504.803;stroke-width:0.93521"
         xml:space="preserve"><tspan
           x="410.44226"
           y="485.66693"
           id="tspan9123"><tspan
             style="font-family:'PT Sans Narrow';-inkscape-font-specification:'PT Sans Narrow'"
             id="tspan9121">Мебель для спальни</tspan></tspan></text></g><g
       id="g8288"
       transform="matrix(0.83333333,0,0,0.83333333,240,72.333333)"
       style="fill:#ffffff;fill-opacity:1;stroke:#2317ab;stroke-width:2.4;stroke-dasharray:none;stroke-opacity:1"><g
         id="g8215"
         style="fill:#ffffff;fill-opacity:1;stroke:#2317ab;stroke-width:2.4;stroke-dasharray:none;stroke-opacity:1">
	<g
   id="g8213"
   style="fill:#ffffff;fill-opacity:1;stroke:#2317ab;stroke-width:2.4;stroke-dasharray:none;stroke-opacity:1">
		<path
   d="m 472,272 h -8 v -24 c -0.021,-15.886 -9.44,-30.254 -24,-36.608 V 88 c -0.002,-3.18 -1.886,-6.056 -4.8,-7.328 3.121,-5.002 4.783,-10.776 4.8,-16.672 0,-17.673 -14.327,-32 -32,-32 -17.673,0 -32,14.327 -32,32 0.033,5.634 1.569,11.157 4.448,16 H 99.552 C 102.431,75.157 103.967,69.634 104,64 104,46.327 89.673,32 72,32 54.327,32 40,46.327 40,64 40.017,69.896 41.679,75.67 44.8,80.672 41.886,81.944 40.002,84.82 40,88 V 211.392 C 25.44,217.746 16.021,232.114 16,248 v 24 H 8 c -4.418,0 -8,3.582 -8,8 v 112 c 0,4.418 3.582,8 8,8 h 8 v 40 c 0,4.418 3.582,8 8,8 h 32 c 4.418,0 8,-3.582 8,-8 v -40 h 352 v 40 c 0,4.418 3.582,8 8,8 h 32 c 4.418,0 8,-3.582 8,-8 v -40 h 8 c 4.418,0 8,-3.582 8,-8 V 280 c 0,-4.418 -3.582,-8 -8,-8 z M 408,48 c 8.837,0 16,7.163 16,16 0,8.837 -7.163,16 -16,16 -8.837,0 -16,-7.163 -16,-16 0,-8.837 7.163,-16 16,-16 z M 72,48 c 8.837,0 16,7.163 16,16 0,8.837 -7.163,16 -16,16 C 63.163,80 56,72.837 56,64 56,55.163 63.163,48 72,48 Z M 56,96 h 368 v 112 h -32.208 c 5.294,-6.883 8.179,-15.316 8.208,-24 v -16 c -0.026,-22.08 -17.92,-39.974 -40,-40 h -64 c -22.08,0.026 -39.974,17.92 -40,40 v 16 c 0.029,8.684 2.914,17.117 8.208,24 h -48.416 c 5.294,-6.883 8.179,-15.316 8.208,-24 v -16 c -0.026,-22.08 -17.92,-39.974 -40,-40 h -64 c -22.08,0.026 -39.974,17.92 -40,40 v 16 c 0.029,8.684 2.914,17.117 8.208,24 H 56 Z m 328,72 v 16 c 0,13.255 -10.745,24 -24,24 h -64 c -13.255,0 -24,-10.745 -24,-24 v -16 c 0,-13.255 10.745,-24 24,-24 h 64 c 13.255,0 24,10.745 24,24 z m -176,0 v 16 c 0,13.255 -10.745,24 -24,24 h -64 c -13.255,0 -24,-10.745 -24,-24 v -16 c 0,-13.255 10.745,-24 24,-24 h 64 c 13.255,0 24,10.745 24,24 z M 32,248 c 0,-13.255 10.745,-24 24,-24 h 368 c 13.255,0 24,10.745 24,24 v 24 H 32 Z M 48,432 H 32 v -32 h 16 z m 400,0 h -16 v -32 h 16 z m 16,-48 H 16 v -96 h 448 z"
   id="path8211"
   style="fill:#ffffff;fill-opacity:1;stroke:#2317ab;stroke-width:2.4;stroke-dasharray:none;stroke-opacity:1" />
	</g>
</g><g
         id="g8221"
         style="fill:#ffffff;fill-opacity:1;stroke:#2317ab;stroke-width:2.4;stroke-dasharray:none;stroke-opacity:1">
	<g
   id="g8219"
   style="fill:#ffffff;fill-opacity:1;stroke:#2317ab;stroke-width:2.4;stroke-dasharray:none;stroke-opacity:1">
		<path
   d="M 72,352 H 40 c -4.418,0 -8,3.582 -8,8 0,4.418 3.582,8 8,8 h 32 c 4.418,0 8,-3.582 8,-8 0,-4.418 -3.582,-8 -8,-8 z"
   id="path8217"
   style="fill:#ffffff;fill-opacity:1;stroke:#2317ab;stroke-width:2.4;stroke-dasharray:none;stroke-opacity:1" />
	</g>
</g><g
         id="g8227"
         style="fill:#ffffff;fill-opacity:1;stroke:#2317ab;stroke-width:2.4;stroke-dasharray:none;stroke-opacity:1">
	<g
   id="g8225"
   style="fill:#ffffff;fill-opacity:1;stroke:#2317ab;stroke-width:2.4;stroke-dasharray:none;stroke-opacity:1">
		<path
   d="M 440,352 H 104 c -4.418,0 -8,3.582 -8,8 0,4.418 3.582,8 8,8 h 336 c 4.418,0 8,-3.582 8,-8 0,-4.418 -3.582,-8 -8,-8 z"
   id="path8223"
   style="fill:#ffffff;fill-opacity:1;stroke:#2317ab;stroke-width:2.4;stroke-dasharray:none;stroke-opacity:1" />
	</g>
</g><g
         id="g8229"
         style="fill:#ffffff;fill-opacity:1;stroke:#2317ab;stroke-width:2.4;stroke-dasharray:none;stroke-opacity:1">
</g><g
         id="g8231"
         style="fill:#ffffff;fill-opacity:1;stroke:#2317ab;stroke-width:2.4;stroke-dasharray:none;stroke-opacity:1">
</g><g
         id="g8233"
         style="fill:#ffffff;fill-opacity:1;stroke:#2317ab;stroke-width:2.4;stroke-dasharray:none;stroke-opacity:1">
</g><g
         id="g8235"
         style="fill:#ffffff;fill-opacity:1;stroke:#2317ab;stroke-width:2.4;stroke-dasharray:none;stroke-opacity:1">
</g><g
         id="g8237"
         style="fill:#ffffff;fill-opacity:1;stroke:#2317ab;stroke-width:2.4;stroke-dasharray:none;stroke-opacity:1">
</g><g
         id="g8239"
         style="fill:#ffffff;fill-opacity:1;stroke:#2317ab;stroke-width:2.4;stroke-dasharray:none;stroke-opacity:1">
</g><g
         id="g8241"
         style="fill:#ffffff;fill-opacity:1;stroke:#2317ab;stroke-width:2.4;stroke-dasharray:none;stroke-opacity:1">
</g><g
         id="g8243"
         style="fill:#ffffff;fill-opacity:1;stroke:#2317ab;stroke-width:2.4;stroke-dasharray:none;stroke-opacity:1">
</g><g
         id="g8245"
         style="fill:#ffffff;fill-opacity:1;stroke:#2317ab;stroke-width:2.4;stroke-dasharray:none;stroke-opacity:1">
</g><g
         id="g8247"
         style="fill:#ffffff;fill-opacity:1;stroke:#2317ab;stroke-width:2.4;stroke-dasharray:none;stroke-opacity:1">
</g><g
         id="g8249"
         style="fill:#ffffff;fill-opacity:1;stroke:#2317ab;stroke-width:2.4;stroke-dasharray:none;stroke-opacity:1">
</g><g
         id="g8251"
         style="fill:#ffffff;fill-opacity:1;stroke:#2317ab;stroke-width:2.4;stroke-dasharray:none;stroke-opacity:1">
</g><g
         id="g8253"
         style="fill:#ffffff;fill-opacity:1;stroke:#2317ab;stroke-width:2.4;stroke-dasharray:none;stroke-opacity:1">
</g><g
         id="g8255"
         style="fill:#ffffff;fill-opacity:1;stroke:#2317ab;stroke-width:2.4;stroke-dasharray:none;stroke-opacity:1">
</g><g
         id="g8257"
         style="fill:#ffffff;fill-opacity:1;stroke:#2317ab;stroke-width:2.4;stroke-dasharray:none;stroke-opacity:1">
</g></g></g></svg>
