<?xml version="1.0" encoding="UTF-8" standalone="no"?>
<svg
   width="500"
   height="500"
   viewBox="0 0 500 500"
   version="1.1"
   id="svg291"
   sodipodi:docname="444.svg"
   inkscape:export-filename="Прихожие.svg"
   inkscape:export-xdpi="96"
   inkscape:export-ydpi="96"
   xml:space="preserve"
   xmlns:inkscape="http://www.inkscape.org/namespaces/inkscape"
   xmlns:sodipodi="http://sodipodi.sourceforge.net/DTD/sodipodi-0.dtd"
   xmlns="http://www.w3.org/2000/svg"
   xmlns:svg="http://www.w3.org/2000/svg"><defs
     id="defs295" /><sodipodi:namedview
     id="namedview293"
     pagecolor="#ffffff"
     bordercolor="#000000"
     borderopacity="0.25"
     inkscape:showpageshadow="2"
     inkscape:pageopacity="0.0"
     inkscape:pagecheckerboard="0"
     inkscape:deskcolor="#d1d1d1"
     showgrid="false" /><g
     transform="translate(-190,-89)"
     id="g289"><g
       id="g406"><rect
         width="500"
         height="500"
         fill="#a9cb00"
         id="rect277"
         x="190"
         y="89"
         style="display:inline;fill:#3f4841;fill-opacity:1"
         inkscape:label="rect277" /><text
         fill="#ffffff"
         font-size="51.4365px"
         font-family="PTSans-Narrow, 'PT Sans'"
         id="text287"
         x="410.44226"
         y="485.66693"
         transform="matrix(0.93521013,0,0,1.0692784,-169.79549,50.995746)"
         style="font-size:64px;white-space:pre;inline-size:504.803;stroke-width:0.93521"
         xml:space="preserve"><tspan
           x="410.44226"
           y="485.66693"
           id="tspan8021"><tspan
             style="font-family:'PT Sans Narrow';-inkscape-font-specification:'PT Sans Narrow'"
             id="tspan8019">Мебель для кабинета</tspan></tspan></text></g><path
       d="m 633.33333,272.75001 h -7.86784 l -12.26562,-61.33464 c -0.63477,-3.10221 -3.36589,-5.33203 -6.53321,-5.33203 h -80 c -0.22135,0 -0.41341,0.12044 -0.63476,0.13998 -0.61849,0.0488 -1.22396,0.18553 -1.80664,0.40689 -0.27019,0.11394 -0.53711,0.2409 -0.79101,0.38737 -0.54688,0.31576 -1.04819,0.70964 -1.48764,1.16536 -0.12695,0.13348 -0.31249,0.19532 -0.43294,0.34181 -0.12045,0.14649 -0.0814,0.19205 -0.13998,0.27994 -0.39062,0.54362 -0.69661,1.14583 -0.90169,1.78385 -0.10416,0.2181 -0.19856,0.43946 -0.27994,0.66733 -0.0228,0.0521 -0.0423,0.10742 -0.0585,0.1595 l -12.26562,61.33464 H 413.3334 v -6.66667 c 0,-11.04492 -8.95508,-20.00001 -20,-20.00001 v -13.33332 h 53.33333 c 11.04493,0 20,-8.95508 20,-20 v -93.33334 c 0,-11.04493 -8.95507,-20.000005 -20,-20.000005 H 286.66666 c -11.04492,0 -19.99999,8.955075 -19.99999,20.000005 v 93.33334 c 0,11.04492 8.95507,20 19.99999,20 H 340 v 13.33332 c -11.04492,0 -20,8.95509 -20,20.00001 v 6.66667 h -73.33334 c -3.68163,0 -6.66666,2.98502 -6.66666,6.66666 v 213.33334 c 0,3.68163 2.98503,6.66666 6.66666,6.66666 h 26.66667 c 3.68164,0 6.66667,-2.98503 6.66667,-6.66666 v -46.66667 h 320 v 46.66667 c 0,3.68163 2.98503,6.66666 6.66666,6.66666 h 26.66667 c 3.68164,0 6.66667,-2.98503 6.66667,-6.66666 V 279.41667 c 0,-3.68164 -2.98503,-6.66666 -6.66667,-6.66666 z m -32.13216,-53.33334 10.66406,53.33334 H 545.4655 l -10.66406,-53.33334 z m -75.29297,31.11979 5.55339,22.21355 H 521.46158 Z M 280,119.41667 c 0,-3.68164 2.98502,-6.66666 6.66666,-6.66666 h 160 c 3.68164,0 6.66667,2.98502 6.66667,6.66666 V 192.75 H 280 Z m 0,93.33334 v -6.66667 h 173.33333 v 6.66667 c 0,3.68164 -2.98503,6.66666 -6.66667,6.66666 h -160 c -3.68164,0 -6.66666,-2.98502 -6.66666,-6.66666 z m 73.33334,20 H 380 v 13.33332 h -26.66666 z m -20.00001,33.33333 c 0,-3.68165 2.98502,-6.66667 6.66667,-6.66667 h 53.33333 c 3.68164,0 6.66667,2.98502 6.66667,6.66667 v 6.66667 H 333.33333 Z M 280,432.75001 V 312.75 h 320 v 120.00001 z m 346.66666,53.33333 h -13.33333 v -180 c 0,-3.68165 -2.98502,-6.66667 -6.66667,-6.66667 H 273.33333 c -3.68164,0 -6.66666,2.98502 -6.66666,6.66667 v 180 h -13.33333 v -200 h 373.33332 z m 0,0"
       id="path7149"
       style="fill:#ffffff;fill-opacity:1;stroke:#2317ab;stroke-width:2;stroke-dasharray:none;stroke-opacity:1" /></g></svg>
