<?xml version="1.0" encoding="UTF-8" standalone="no"?>
<svg
   width="500"
   height="500"
   viewBox="0 0 500 500"
   version="1.1"
   id="svg291"
   sodipodi:docname="444.svg"
   inkscape:export-filename="Прихожие.svg"
   inkscape:export-xdpi="96"
   inkscape:export-ydpi="96"
   xml:space="preserve"
   xmlns:inkscape="http://www.inkscape.org/namespaces/inkscape"
   xmlns:sodipodi="http://sodipodi.sourceforge.net/DTD/sodipodi-0.dtd"
   xmlns="http://www.w3.org/2000/svg"
   xmlns:svg="http://www.w3.org/2000/svg"><defs
     id="defs295" /><sodipodi:namedview
     id="namedview293"
     pagecolor="#ffffff"
     bordercolor="#000000"
     borderopacity="0.25"
     inkscape:showpageshadow="2"
     inkscape:pageopacity="0.0"
     inkscape:pagecheckerboard="0"
     inkscape:deskcolor="#d1d1d1"
     showgrid="false" /><g
     transform="translate(-190,-89)"
     id="g289"><g
       id="g406"><rect
         width="500"
         height="500"
         fill="#a9cb00"
         id="rect277"
         x="190"
         y="89"
         style="display:inline;fill:#283281;fill-opacity:1"
         inkscape:label="rect277" /><text
         fill="#ffffff"
         font-size="51.4365px"
         font-family="PTSans-Narrow, 'PT Sans'"
         id="text287"
         x="410.44226"
         y="485.66693"
         transform="matrix(0.93521013,0,0,1.0692784,-52.602659,46.000077)"
         style="font-size:64px;white-space:pre;inline-size:504.803;stroke-width:0.93521"
         xml:space="preserve"><tspan
           x="410.44226"
           y="485.66693"
           id="tspan7147"><tspan
             style="font-family:'PT Sans Narrow';-inkscape-font-specification:'PT Sans Narrow'"
             id="tspan7145">Прихожие</tspan></tspan></text></g><g
       id="g5542"
       transform="matrix(0.78125,0,0,0.78125,240,181.48618)"
       style="fill:#ffffff;fill-opacity:1;stroke:#2317ab;stroke-width:0.384;stroke-dasharray:none;stroke-opacity:1"
       inkscape:label="g5542"
       inkscape:export-filename=".\g5542.svg"
       inkscape:export-xdpi="96"
       inkscape:export-ydpi="96"><path
         id="path5389"
         style="fill:#ffffff;fill-opacity:1;stroke:#2317ab;stroke-width:2.56;stroke-dasharray:none;stroke-opacity:1"
         d="m 8,1.896e-4 c -4.4257766,0 -8,3.5742234 -8,8 V 40.01519 c 0,4.425776 3.5742234,8 8,8 v 240.145 c 0,4.42578 3.574223,8 8,8 h 24 c 4.425777,0 8,-3.57422 8,-8 v -104.0325 h 416 v 104.0325 c 0,4.42578 3.57422,8 8,8 h 24 c 4.42578,0 8,-3.57422 8,-8 v -240.145 c 4.42578,0 8,-3.574224 8,-8 V 8.0001896 c 0,-4.4257766 -3.57422,-8 -8,-8 z M 16,16.00019 h 480 v 16.015 H 16 Z m 8,32.015 h 8 v 232.145 h -8 z m 24,0 h 416 v 96.0975 H 263.1925 c -1.20613,-5.90817 -3.72021,-11.34542 -7.2225,-15.9975 v -39.9875 c 0,-4.425777 -3.57813,-8 -8,-8 H 240 v -8 c 0,-4.425777 -3.57422,-8 -8,-8 h -32 c -0.27661,0 -0.55071,0.01524 -0.82,0.0425 -4.0394,0.408882 -7.18,3.808334 -7.18,7.9575 v 8 h -8.015 c -0.27661,0 -0.55071,0.01524 -0.82,0.0425 -4.0394,0.408882 -7.18,3.808334 -7.18,7.9575 v 40.025 c -3.48723,4.6436 -5.99219,10.06808 -7.195,15.96 h -9.5975 c -1.20613,-5.90817 -3.72021,-11.34542 -7.2225,-15.9975 v -39.9875 c 0,-4.425777 -3.57813,-8 -8,-8 H 136 v -8 c 0,-4.425777 -3.57422,-8 -8,-8 H 96 c -4.425777,0 -8,3.574223 -8,8 v 8 h -8.015 c -4.425777,0 -8,3.574223 -8,8 v 40.025 c -3.487228,4.6436 -5.992185,10.06808 -7.195,15.96 H 48 Z m 432,0 h 8 v 232.145 h -8 z m -376,32.1125 h 16 v 16.0175 c 0,4.42187 3.57422,8 8,8 4.21853,0 7.65662,-3.25373 7.97,-7.3875 v 18.705 c -4.89302,-2.13895 -10.28942,-3.335 -15.9625,-3.335 h -16.03 c -5.683986,0 -11.092027,1.20078 -15.9925,3.3475 V 96.12769 H 88 v 0.0175 c 0,4.42187 3.574223,8 8,8 4.42578,0 8,-3.57813 8,-8 z m 104,0 h 16 v 16.0175 c 0,4.42187 3.57422,8 8,8 4.21853,0 7.65662,-3.25373 7.97,-7.3875 v 18.705 c -4.89302,-2.13895 -10.28942,-3.335 -15.9625,-3.335 h -16.03 c -5.68399,0 -11.09203,1.20078 -15.9925,3.3475 V 96.12769 H 192 v 0.0175 c 0,4.42187 3.57422,8 8,8 4.42578,0 8,-3.57813 8,-8 z m -104.0225,48 h 16.03 c 7.00108,0 13.31382,3.02038 17.705,7.825 0.13666,0.17145 0.28244,0.33548 0.4325,0.495 1.93365,2.23469 3.46335,4.82648 4.4725,7.665 H 81.365 c 3.307389,-9.30317 12.197949,-15.985 22.6125,-15.985 z m 104,0 h 16.03 c 7.00108,0 13.31382,3.02038 17.705,7.825 0.13666,0.17145 0.28244,0.33548 0.4325,0.495 1.93365,2.23469 3.46335,4.82648 4.4725,7.665 H 185.365 c 3.30739,-9.30317 12.19795,-15.985 22.6125,-15.985 z M 48,160.11269 h 23.6775 c 0.102759,0.004 0.203771,0.015 0.3075,0.015 0.103954,0 0.204514,-0.0111 0.3075,-0.015 h 79.4 c 0.10276,0.004 0.20377,0.015 0.3075,0.015 0.10373,0 0.20474,-0.0111 0.3075,-0.015 h 23.37 c 0.10276,0.004 0.20377,0.015 0.3075,0.015 0.10395,0 0.20451,-0.0111 0.3075,-0.015 h 79.4 c 0.10276,0.004 0.20377,0.015 0.3075,0.015 0.10373,0 0.20474,-0.0111 0.3075,-0.015 H 464 v 8.015 H 48 Z m 224.1675,40.0325 c -4.42578,0 -8,3.57422 -8,8 v 16 c -4.42578,0 -8,3.57422 -8,8 0,4.42188 3.57422,8 8,8 v 9.365 c -9.30932,3.30848 -16,12.20423 -16,22.635 v 16.015 c 0,4.42578 3.57422,8 8,8 h 80.025 c 0.27661,0 0.54815,-0.0152 0.8175,-0.0425 0.53859,-0.0545 1.06366,-0.16192 1.565,-0.3175 0.24989,-0.0776 0.49635,-0.16675 0.735,-0.2675 0.23864,-0.10083 0.47393,-0.21486 0.7,-0.3375 0.22606,-0.12272 0.44782,-0.25679 0.66,-0.4 2.12993,-1.43612 3.53,-3.86889 3.53,-6.635 0,-0.0489 -0.007,-0.0963 -0.007,-0.145 v -15.87 c 0,-10.42656 -6.68546,-19.31782 -15.9925,-22.6225 v -9.3775 c 4.42227,-0.004 7.9925,-3.58065 7.9925,-8 0,-4.42324 -3.57023,-7.99591 -7.9925,-8 v -16 c 0,-4.42578 -3.57422,-8 -8,-8 z m 104,0 c -0.27661,0 -0.54821,0.0127 -0.8175,0.04 -4.0394,0.40888 -7.1825,3.81083 -7.1825,7.96 v 16 c -4.42578,0 -8,3.57422 -8,8 0,4.42188 3.57422,8 8,8 v 9.365 c -9.30932,3.30848 -16,12.20423 -16,22.635 v 16.015 c 0,4.42578 3.57422,8 8,8 h 80.025 c 0.27661,0 0.54815,-0.0152 0.8175,-0.0425 0.53859,-0.0545 1.06366,-0.16192 1.565,-0.3175 0.24989,-0.0776 0.49635,-0.16675 0.735,-0.2675 0.23864,-0.10083 0.47393,-0.21486 0.7,-0.3375 0.22606,-0.12272 0.44782,-0.25679 0.66,-0.4 2.12993,-1.43612 3.53,-3.86889 3.53,-6.635 0,-0.0489 -0.007,-0.0963 -0.007,-0.145 v -15.87 c 0,-10.42656 -6.68546,-19.31782 -15.9925,-22.6225 v -9.3775 c 4.42227,-0.004 7.9925,-3.58065 7.9925,-8 0,-4.42324 -3.57023,-7.99591 -7.9925,-8 v -16 c 0,-4.42578 -3.57422,-8 -8,-8 z m -96,16 H 312.2 v 8 h -32.0325 z m 104,0 H 416.2 v 8 h -32.0325 z m -104,24 H 312.2 v 7.9825 h -32.0325 z m 104,0 H 416.2 v 7.9825 h -32.0325 z m -112,23.9825 c 0.005,0 0.01,1e-5 0.015,0 h 47.6725 c 0.11259,0.005 0.22375,0.0175 0.3375,0.0175 0.003,0 0.005,0 0.007,0 4.41447,0.004 7.9925,3.58456 7.9925,8 v 8.015 h -64.025 v -8.015 c 0,-4.42071 3.58509,-8.0093 8,-8.0175 z m 104,0 c 0.005,0 0.01,1e-5 0.015,0 h 47.6725 c 0.11259,0.005 0.22375,0.0175 0.3375,0.0175 0.003,0 0.005,0 0.007,0 4.41447,0.004 7.9925,3.58456 7.9925,8 v 8.015 h -64.025 v -8.015 c 0,-4.42071 3.58509,-8.0093 8,-8.0175 z" /></g></g></svg>
