<svg xmlns="http://www.w3.org/2000/svg" width="500" height="500" viewBox="0 0 500 500">
  <g id="shkafy-kupe" transform="translate(-190 -89)">
    <g id="g406">
      <rect id="rect277" width="500" height="500" transform="translate(190 89)" fill="#d19d03"/>
      <text id="text287" transform="translate(305.54 564.972)" fill="#fff" font-size="60" font-family="PTSans-Narrow, PT Sans"><tspan x="0" y="0">Шкафы-купе</tspan></text>
    </g>
    <g id="g9139" transform="translate(221.303 91.934)">
      <path id="path9125" d="M418.725,8.036H18.667v394.5H418.725ZM408.481,160.081H288.843V17.68H408.481Zm-248.36,80.764v-71.12H278.6v71.12ZM278.6,250.488v142.4H160.121v-142.4Zm-128.721-9.643H28.911v-71.12H149.876Zm10.244-80.764V17.68H278.6v142.4Zm128.721,9.643H408.481v71.12H288.843ZM149.877,17.68v142.4H28.911V17.68ZM28.911,250.488H149.876v142.4H28.911Zm259.931,142.4v-142.4H408.481v142.4Z" fill="#fff" stroke="#2317ab" stroke-width="1.941"/>
      <path id="path9127" d="M39.914,222.152a4.979,4.979,0,0,0,5.122-4.822v-24.1a5.131,5.131,0,0,0-10.244,0v24.1A4.979,4.979,0,0,0,39.914,222.152Z" fill="#fff" stroke="#2317ab" stroke-width="1.941"/>
      <path id="path9129" d="M393.225,188.413a4.979,4.979,0,0,0-5.122,4.822v24.1a5.131,5.131,0,0,0,10.244,0v-24.1a4.979,4.979,0,0,0-5.122-4.822Z" fill="#fff" stroke="#2317ab" stroke-width="1.941"/>
    </g>
  </g>
</svg>
