<?xml version="1.0" encoding="UTF-8" standalone="no"?>
<svg
   width="500"
   height="500"
   viewBox="0 0 500 500"
   version="1.1"
   id="svg291"
   sodipodi:docname="444.svg"
   inkscape:export-filename="Мебель для спальни.svg"
   inkscape:export-xdpi="96"
   inkscape:export-ydpi="96"
   xml:space="preserve"
   xmlns:inkscape="http://www.inkscape.org/namespaces/inkscape"
   xmlns:sodipodi="http://sodipodi.sourceforge.net/DTD/sodipodi-0.dtd"
   xmlns="http://www.w3.org/2000/svg"
   xmlns:svg="http://www.w3.org/2000/svg"><defs
     id="defs295" /><sodipodi:namedview
     id="namedview293"
     pagecolor="#ffffff"
     bordercolor="#000000"
     borderopacity="0.25"
     inkscape:showpageshadow="2"
     inkscape:pageopacity="0.0"
     inkscape:pagecheckerboard="0"
     inkscape:deskcolor="#d1d1d1"
     showgrid="false" /><g
     transform="translate(-190,-89)"
     id="g289"><g
       id="g406"><rect
         width="500"
         height="500"
         fill="#a9cb00"
         id="rect277"
         x="190"
         y="89"
         style="display:inline;fill:#d19d03;fill-opacity:1"
         inkscape:label="rect277" /><text
         fill="#ffffff"
         font-size="51.4365px"
         font-family="PTSans-Narrow, 'PT Sans'"
         id="text287"
         x="410.44226"
         y="485.66693"
         transform="matrix(0.93521013,0,0,1.0692784,-78.309635,45.657908)"
         style="font-size:64px;white-space:pre;inline-size:504.803;stroke-width:0.93521"
         inkscape:label="text287"
         xml:space="preserve"><tspan
           x="410.44226"
           y="485.66693"
           id="tspan9185"><tspan
             style="font-family:'PT Sans Narrow';-inkscape-font-specification:'PT Sans Narrow'"
             id="tspan9183">Шкафы-купе</tspan></tspan></text></g><g
       id="g9139"
       transform="matrix(0.85367278,0,0,0.80361607,221.30312,91.93422)"
       style="fill:#ffffff;fill-opacity:1;stroke:#2317ab;stroke-width:2.34316;stroke-dasharray:none;stroke-opacity:1"><path
         d="M 490.5,10 H 21.867 V 500.9 H 490.5 Z m -12,189.2 H 338.354 V 22 H 478.5 Z M 187.568,299.7 v -88.5 h 138.786 v 88.5 z m 138.786,12 V 488.9 H 187.568 V 311.7 Z m -150.786,-12 H 33.867 v -88.5 h 141.7 z m 12,-100.5 V 22 h 138.786 v 177.2 z m 150.786,12 H 478.5 v 88.5 H 338.354 Z M 175.568,22 V 199.2 H 33.867 V 22 Z M 33.867,311.7 h 141.7 V 488.9 H 33.867 Z M 338.354,488.9 V 311.7 H 478.5 v 177.2 z"
         id="path9125"
         style="fill:#ffffff;fill-opacity:1;stroke:#2317ab;stroke-width:2.34316;stroke-dasharray:none;stroke-opacity:1" /><path
         d="m 46.756,276.439 a 6,6 0 0 0 6,-6 v -29.984 a 6,6 0 0 0 -12,0 v 29.984 a 6,6 0 0 0 6,6 z"
         id="path9127"
         style="fill:#ffffff;fill-opacity:1;stroke:#2317ab;stroke-width:2.34316;stroke-dasharray:none;stroke-opacity:1" /><path
         d="m 460.629,234.455 a 6,6 0 0 0 -6,6 v 29.984 a 6,6 0 0 0 12,0 v -29.984 a 6,6 0 0 0 -6,-6 z"
         id="path9129"
         style="fill:#ffffff;fill-opacity:1;stroke:#2317ab;stroke-width:2.34316;stroke-dasharray:none;stroke-opacity:1" /></g></g></svg>
