<?xml version="1.0" encoding="UTF-8" standalone="no"?>
<svg
   width="500"
   height="500"
   viewBox="0 0 500 500"
   version="1.1"
   id="svg291"
   sodipodi:docname="444.svg"
   inkscape:export-filename="Стенки в гостиную.svg"
   inkscape:export-xdpi="96"
   inkscape:export-ydpi="96"
   xml:space="preserve"
   xmlns:inkscape="http://www.inkscape.org/namespaces/inkscape"
   xmlns:sodipodi="http://sodipodi.sourceforge.net/DTD/sodipodi-0.dtd"
   xmlns="http://www.w3.org/2000/svg"
   xmlns:svg="http://www.w3.org/2000/svg"><defs
     id="defs295" /><sodipodi:namedview
     id="namedview293"
     pagecolor="#ffffff"
     bordercolor="#000000"
     borderopacity="0.25"
     inkscape:showpageshadow="2"
     inkscape:pageopacity="0.0"
     inkscape:pagecheckerboard="0"
     inkscape:deskcolor="#d1d1d1"
     showgrid="false" /><g
     transform="translate(-190,-89)"
     id="g289"><g
       id="g406"><rect
         width="500"
         height="500"
         fill="#a9cb00"
         id="rect277"
         x="190"
         y="89"
         style="display:inline;fill:#9b2a51;fill-opacity:1"
         inkscape:label="rect277" /><text
         fill="#ffffff"
         font-size="51.4365px"
         font-family="PTSans-Narrow, 'PT Sans'"
         id="text287"
         x="410.44226"
         y="485.66693"
         transform="matrix(0.93521013,0,0,1.0692784,-136.36748,50.995746)"
         style="font-size:64px;white-space:pre;inline-size:504.803;stroke-width:0.93521"
         xml:space="preserve"><tspan
           x="410.44226"
           y="485.66693"
           id="tspan8209"><tspan
             style="font-family:'PT Sans Narrow';-inkscape-font-specification:'PT Sans Narrow'"
             id="tspan8207">Стенки в гостиную</tspan></tspan></text></g><g
       id="g8049"
       transform="matrix(0.8536792,0,0,0.80111965,221.30147,91.957679)"
       style="fill:#ffffff;fill-opacity:1;stroke:#2317ab;stroke-width:2.34316;stroke-dasharray:none;stroke-opacity:1"><path
         d="M 47.867,500.9 H 464.5 a 26.029,26.029 0 0 0 26,-26 V 36 a 26.029,26.029 0 0 0 -26,-26 H 47.867 a 26.029,26.029 0 0 0 -26,26 v 438.9 a 26.029,26.029 0 0 0 26,26 z m 139.7,-101.69 V 311.7 h 138.787 v 87.507 z m 138.786,12 V 488.9 H 187.568 V 411.21 Z M 33.867,211.2 h 141.7 v 88.5 h -141.7 z m 153.7,-99.631 67.436,0.342 c 0.068,0 0.135,0.01 0.2,0.01 0.065,0 0.11,-0.007 0.166,-0.008 l 70.981,0.36 V 199.2 H 187.568 Z M 326.354,211.2 v 88.5 H 187.568 V 211.2 Z M 478.5,299.7 H 338.354 V 211.2 H 478.5 Z m -302.932,12 v 87.507 H 33.867 V 311.7 Z m 162.786,0 H 478.5 v 87.507 H 338.354 Z M 478.5,199.2 H 338.354 V 55.93 H 478.5 Z M 326.354,100.267 261.207,99.937 V 22 h 65.147 z M 249.207,99.876 187.568,99.563 V 22 h 61.639 z M 175.568,199.2 H 33.867 V 58.782 h 141.7 z M 33.867,474.9 v -63.69 h 141.7 v 77.69 h -127.7 a 14.016,14.016 0 0 1 -14,-14 z m 430.633,14 H 338.354 V 411.21 H 478.5 v 63.69 a 14.016,14.016 0 0 1 -14,14 z M 478.5,36 v 7.93 H 338.354 V 22 H 464.5 a 14.015,14.015 0 0 1 14,14 z M 47.867,22 h 127.7 V 46.782 H 33.867 V 36 a 14.015,14.015 0 0 1 14,-14 z"
         id="path8023"
         style="fill:#ffffff;fill-opacity:1;stroke:#2317ab;stroke-width:2.34316;stroke-dasharray:none;stroke-opacity:1" /><path
         d="M 116.886,219.979 H 93.475 a 6,6 0 0 0 0,12 h 23.411 a 6,6 0 0 0 0,-12 z"
         id="path8025"
         style="fill:#ffffff;fill-opacity:1;stroke:#2317ab;stroke-width:2.34316;stroke-dasharray:none;stroke-opacity:1" /><path
         d="m 391.217,231.979 h 23.411 a 6,6 0 0 0 0,-12 h -23.411 a 6,6 0 0 0 0,12 z"
         id="path8027"
         style="fill:#ffffff;fill-opacity:1;stroke:#2317ab;stroke-width:2.34316;stroke-dasharray:none;stroke-opacity:1" /><path
         d="m 264.656,319.146 h -23.411 a 6,6 0 0 0 0,12 h 23.411 a 6,6 0 0 0 0,-12 z"
         id="path8029"
         style="fill:#ffffff;fill-opacity:1;stroke:#2317ab;stroke-width:2.34316;stroke-dasharray:none;stroke-opacity:1" /><path
         d="m 241.245,431.527 h 23.411 a 6,6 0 0 0 0,-12 h -23.411 a 6,6 0 1 0 0,12 z"
         id="path8031"
         style="fill:#ffffff;fill-opacity:1;stroke:#2317ab;stroke-width:2.34316;stroke-dasharray:none;stroke-opacity:1" /><path
         d="m 234.291,72.243 a 6,6 0 0 0 6,-6 v -7.2 a 6,6 0 0 0 -12,0 v 7.2 a 6,6 0 0 0 6,6 z"
         id="path8033"
         style="fill:#ffffff;fill-opacity:1;stroke:#2317ab;stroke-width:2.34316;stroke-dasharray:none;stroke-opacity:1" /><path
         d="m 276.533,72.243 a 6,6 0 0 0 6,-6 v -7.2 a 6,6 0 0 0 -12,0 v 7.2 a 6,6 0 0 0 6,6 z"
         id="path8035"
         style="fill:#ffffff;fill-opacity:1;stroke:#2317ab;stroke-width:2.34316;stroke-dasharray:none;stroke-opacity:1" /></g></g></svg>
